<svg width="429" height="128" viewBox="0 0 429 128" fill="none" xmlns="http://www.w3.org/2000/svg">
<rect width="128" height="128" rx="8" fill="#D66234"/>
<path d="M60.62 78.96C54.8333 75.9733 52.4067 73.1733 53.34 70.56C53.8067 69.2533 54.5067 67.9467 55.44 66.64C58.52 62.8133 60.06 58.8 60.06 54.6C60.06 50.4 58.24 46.9467 54.6 44.24C51.0533 41.5333 46.9 40.18 42.14 40.18C37.38 40.18 33.3667 41.4867 30.1 44.1C26.8333 46.8067 25.2 50.6333 25.2 55.58C25.2 63.8867 28.3733 71.2133 34.72 77.56C41.16 84 48.58 87.22 56.98 87.22C57.9133 87.22 58.8933 86.4733 59.92 84.98C61.04 83.4867 61.6 82.18 61.6 81.06C61.6 80.0333 61.2733 79.3333 60.62 78.96Z" fill="#F8DED3"/>
<path d="M100.62 78.96C94.8333 75.9733 92.4067 73.1733 93.34 70.56C93.8067 69.2533 94.5067 67.9467 95.44 66.64C98.52 62.8133 100.06 58.8 100.06 54.6C100.06 50.4 98.24 46.9467 94.6 44.24C91.0533 41.5333 86.9 40.18 82.14 40.18C77.38 40.18 73.3667 41.4867 70.1 44.1C66.8333 46.8067 65.2 50.6333 65.2 55.58C65.2 63.8867 68.3733 71.2133 74.72 77.56C81.16 84 88.58 87.22 96.98 87.22C97.9133 87.22 98.8933 86.4733 99.92 84.98C101.04 83.4867 101.6 82.18 101.6 81.06C101.6 80.0333 101.273 79.3333 100.62 78.96Z" fill="#F8DED3"/>
<g clip-path="url(#clip0_373_1531)">
<path d="M191.96 109.72C186.84 109.72 182.28 109.12 178.28 107.92C174.36 106.8 171.28 105.44 169.04 103.84L176.12 90.4C178.04 91.6 180.12 92.52 182.36 93.16C184.6 93.8 186.92 94.12 189.32 94.12C192.84 94.12 195.44 93.16 197.12 91.24C198.88 89.4 199.76 87 199.76 84.04V80.08L202.04 78.52C199.56 81.48 196.76 83.6 193.64 84.88C190.52 86.16 187.28 86.8 183.92 86.8C179.84 86.8 176.24 85.84 173.12 83.92C170.08 82 167.68 79.24 165.92 75.64C164.24 71.96 163.4 67.6 163.4 62.56C163.4 57.52 164.24 53.2 165.92 49.6C167.68 46 170.08 43.24 173.12 41.32C176.24 39.4 179.84 38.44 183.92 38.44C187.28 38.44 190.52 39.08 193.64 40.36C196.76 41.64 199.56 43.76 202.04 46.72L201.68 48.4V39.64H225.68V52.84H220.88V82.96C220.88 88.48 219.64 93.24 217.16 97.24C214.76 101.24 211.4 104.32 207.08 106.48C202.76 108.64 197.72 109.72 191.96 109.72ZM192.2 71.2C193.56 71.2 194.96 70.92 196.4 70.36C197.92 69.72 199.32 68.76 200.6 67.48L199.88 73.12V52.36L200.6 57.76C199.32 56.4 197.92 55.44 196.4 54.88C194.96 54.32 193.56 54.04 192.2 54.04C189.64 54.04 187.6 54.8 186.08 56.32C184.56 57.76 183.8 59.84 183.8 62.56C183.8 65.28 184.56 67.4 186.08 68.92C187.6 70.44 189.64 71.2 192.2 71.2ZM229.12 88V74.8H234.52V31.24H228.52V18.04H255.52V74.8H260.92V88H229.12ZM294.407 89.2C288.407 89.2 283.167 88.16 278.687 86.08C274.287 84 270.847 81.04 268.367 77.2C265.967 73.28 264.767 68.68 264.767 63.4C264.767 58.44 265.887 54.08 268.127 50.32C270.367 46.56 273.487 43.64 277.487 41.56C281.487 39.48 286.127 38.44 291.407 38.44C296.607 38.44 301.087 39.48 304.847 41.56C308.687 43.64 311.647 46.56 313.727 50.32C315.807 54.08 316.847 58.52 316.847 63.64V67.36H275.447V58.36H296.807C296.807 56.68 296.567 55.24 296.087 54.04C295.607 52.84 294.927 51.96 294.047 51.4C293.167 50.76 292.087 50.44 290.807 50.44C289.607 50.44 288.527 50.76 287.567 51.4C286.687 52.04 286.007 52.96 285.527 54.16C285.047 55.36 284.807 56.88 284.807 58.72V63.64C284.807 67 285.807 69.52 287.807 71.2C289.807 72.8 292.687 73.6 296.447 73.6C298.927 73.6 301.327 73.32 303.647 72.76C305.967 72.12 308.167 71.08 310.247 69.64L316.967 82.36C314.407 84.36 311.047 86 306.887 87.28C302.727 88.56 298.567 89.2 294.407 89.2ZM351.36 89.2C345.36 89.2 340.12 88.16 335.64 86.08C331.24 84 327.8 81.04 325.32 77.2C322.92 73.28 321.72 68.68 321.72 63.4C321.72 58.44 322.84 54.08 325.08 50.32C327.32 46.56 330.44 43.64 334.44 41.56C338.44 39.48 343.08 38.44 348.36 38.44C353.56 38.44 358.04 39.48 361.8 41.56C365.64 43.64 368.6 46.56 370.68 50.32C372.76 54.08 373.8 58.52 373.8 63.64V67.36H332.4V58.36H353.76C353.76 56.68 353.52 55.24 353.04 54.04C352.56 52.84 351.88 51.96 351 51.4C350.12 50.76 349.04 50.44 347.76 50.44C346.56 50.44 345.48 50.76 344.52 51.4C343.64 52.04 342.96 52.96 342.48 54.16C342 55.36 341.76 56.88 341.76 58.72V63.64C341.76 67 342.76 69.52 344.76 71.2C346.76 72.8 349.64 73.6 353.4 73.6C355.88 73.6 358.28 73.32 360.6 72.76C362.92 72.12 365.12 71.08 367.2 69.64L373.92 82.36C371.36 84.36 368 86 363.84 87.28C359.68 88.56 355.52 89.2 351.36 89.2ZM378.313 88V74.8H383.713V52.84H377.713V39.64H383.713V37.36C383.713 33.2 384.713 29.6 386.713 26.56C388.713 23.44 391.513 21.04 395.113 19.36C398.713 17.68 402.833 16.84 407.473 16.84C412.593 16.84 416.913 17.72 420.433 19.48C423.953 21.16 426.513 23.44 428.113 26.32L415.873 35.44C415.153 34.24 414.233 33.36 413.113 32.8C412.073 32.16 410.873 31.84 409.513 31.84C408.073 31.84 406.913 32.36 406.033 33.4C405.153 34.36 404.713 35.68 404.713 37.36V39.64H415.513V52.84H404.713V74.8H414.313V88H378.313Z" fill="black"/>
</g>
<defs>
<clipPath id="clip0_373_1531">
<rect width="266" height="94" fill="white" transform="translate(163 16)"/>
</clipPath>
</defs>
</svg>
